<svg width="16" height="16" viewBox="0 0 16 16" fill="none" xmlns="http://www.w3.org/2000/svg">
<g clip-path="url(#clip0_40000395_2877)">
<path d="M12.4193 8.4498C12.4076 7.84722 12.5643 7.25334 12.8718 6.73505C13.1794 6.21677 13.6255 5.79457 14.16 5.5161C13.8234 5.04811 13.3838 4.66366 12.8752 4.39238C12.3665 4.12111 11.8025 3.97026 11.2263 3.95146C9.98436 3.85367 8.63485 4.67511 8.13612 4.67511C7.63739 4.67511 6.40524 3.99057 5.46644 3.99057C3.51064 3.99057 1.44727 5.54544 1.44727 8.64538C1.45669 9.61165 1.62519 10.5698 1.946 11.4813C2.37627 12.733 3.98981 15.8721 5.6718 15.8232C6.55192 15.8232 7.17778 15.1973 8.32192 15.1973C9.46607 15.1973 10.0039 15.8232 10.9916 15.8232C12.6834 15.8232 14.1502 12.9384 14.5707 11.6573C13.934 11.3969 13.3893 10.9527 13.0062 10.3815C12.6229 9.81016 12.4186 9.13766 12.4193 8.4498ZM10.4635 2.70952C10.7674 2.36691 10.9965 1.96474 11.1362 1.52866C11.276 1.09257 11.3233 0.632157 11.2752 0.176758C10.3621 0.276885 9.51878 0.712501 8.90866 1.39913C8.59319 1.73153 8.3496 2.12538 8.19313 2.55611C8.03667 2.98684 7.97066 3.44519 7.99922 3.90256C8.47272 3.91587 8.9425 3.8143 9.36818 3.60653C9.79396 3.39877 10.163 3.09099 10.444 2.70952H10.4635Z" fill="#7C7C7C"/>
</g>
<defs>
<clipPath id="clip0_40000395_2877">
<rect width="16" height="16" fill="white"/>
</clipPath>
</defs>
</svg>
